<?xml version="1.0"?><svg fill="#000000" xmlns="http://www.w3.org/2000/svg" viewBox="0 0 32 32" width="128px" height="128px">    <path d="M 21.699219 2.6601562 L 17.880859 5.3808594 L 14.023438 2.8359375 L 6.7148438 6.78125 L 2.8710938 22.398438 L 12.056641 29.365234 L 15.072266 25.839844 L 20.207031 29.029297 L 29.746094 26.830078 L 25.980469 19.005859 L 28.794922 13.335938 L 25 10.189453 L 25 7 L 22.714844 7 L 21.699219 2.6601562 z M 13.921875 5.1640625 L 16.134766 6.6230469 L 15.605469 7 L 10.519531 7 L 13.921875 5.1640625 z M 20.431641 6.0175781 L 20.660156 7 L 19.052734 7 L 20.431641 6.0175781 z M 9 9 L 23 9 L 23 23 L 9 23 L 9 9 z M 11.091797 11.103516 L 11.091797 16.572266 L 12.283203 16.572266 L 12.283203 14.914062 L 13.212891 14.914062 C 14.438891 14.914062 15.433594 14.251187 15.433594 12.992188 C 15.433594 11.865187 14.671703 11.103516 13.345703 11.103516 L 11.091797 11.103516 z M 19.085938 11.185547 C 18.332937 11.168547 17.603313 11.461141 17.070312 11.994141 C 16.537312 12.527141 16.246672 13.254813 16.263672 14.007812 C 16.254672 14.752812 16.544359 15.47 17.068359 16 C 17.592359 16.53 18.305781 16.830078 19.050781 16.830078 C 20.100781 16.830078 20.72325 16.435703 21.28125 15.845703 L 20.527344 15.091797 C 20.100344 15.452797 19.706984 15.714844 19.083984 15.714844 C 18.164984 15.714844 17.509766 14.926812 17.509766 14.007812 C 17.509766 13.056812 18.164984 12.302734 19.083984 12.302734 C 19.608984 12.302734 20.035891 12.532781 20.462891 12.925781 L 21.216797 12.039062 C 20.724797 11.514062 20.102937 11.185547 19.085938 11.185547 z M 12.283203 12.230469 L 13.212891 12.230469 C 13.842891 12.230469 14.205078 12.529547 14.205078 13.060547 C 14.205078 13.524547 13.895141 13.921875 13.244141 13.921875 L 12.283203 13.921875 L 12.283203 12.230469 z M 25 12.787109 L 26.300781 13.865234 L 25 16.482422 L 25 12.787109 z M 7 13.992188 L 7 23.019531 L 5.1289062 21.599609 L 7 13.992188 z M 10.935547 20 L 10.935547 21 L 16.935547 21 L 16.935547 20 L 10.935547 20 z M 25 21.580078 L 26.859375 25.443359 L 20.5625 26.896484 L 17.509766 25 L 25 25 L 25 21.580078 z M 9.609375 25 L 13.158203 25 L 11.763672 26.632812 L 9.609375 25 z"/></svg>